<?xml version="1.0" encoding="UTF-8"?>
<svg id="Layer_2" data-name="Layer 2" xmlns="http://www.w3.org/2000/svg" viewBox="0 0 151 151">
  <defs>
    <style>
      .cls-1 {
        fill: #051c43;
      }
    </style>
  </defs>
  <g id="type">
    <g>
      <path class="cls-1" d="M75.5,0C33.87,0,0,33.87,0,75.5s33.87,75.5,75.5,75.5,75.5-33.87,75.5-75.5S117.14,0,75.5,0Zm0,143.07c-37.32,0-67.57-30.25-67.57-67.57S38.18,7.93,75.5,7.93s67.57,30.25,67.57,67.57-30.25,67.57-67.57,67.57Z"/>
      <path class="cls-1" d="M75.5,11.64c-35.27,0-63.86,28.59-63.86,63.86s28.59,63.86,63.86,63.86,63.86-28.59,63.86-63.86S110.77,11.64,75.5,11.64Zm38.65,82.09l-3.28,14.21c-.34,1.45-1.64,2.54-3.2,2.54h0c-34.99,0-63.4-28.35-63.4-63.4h0c0-1.56,1.09-2.86,2.54-3.2l14.21-3.28c.24-.05,.48-.08,.73-.08,1.35,0,2.52,.82,3.03,1.98l6.56,15.3c.17,.4,.27,.83,.27,1.29,0,1.02-.47,1.94-1.21,2.54l-8.28,6.78c5.02,10.65,13.57,19.19,24.21,24.21l6.78-8.28c.6-.74,1.52-1.2,2.54-1.2,.46,0,.89,.09,1.28,.26l15.3,6.56c1.18,.51,2,1.68,2,3.04,0,.25-.03,.49-.08,.73Z"/>
    </g>
  </g>
</svg>