<?xml version="1.0" encoding="UTF-8"?>
<svg id="Layer_2" data-name="Layer 2" xmlns="http://www.w3.org/2000/svg" viewBox="0 0 119.86 112.61">
  <defs>
    <style>
      .cls-1 {
        fill: #051c43;
      }
    </style>
  </defs>
  <g id="type">
    <g>
      <path class="cls-1" d="M2.45,56.3C2.45,26.56,26.56,2.45,56.3,2.45c12.94,0,24.81,4.57,34.1,12.18l1.74-1.75C82.41,4.84,69.92,0,56.3,0,25.21,0,0,25.21,0,56.3c0,15.6,6.35,29.71,16.6,39.91l1.42-2.05c-9.62-9.73-15.57-23.09-15.57-37.86Z"/>
      <path class="cls-1" d="M103.92,31.18c3.97,7.5,6.24,16.04,6.24,25.12,0,29.74-24.11,53.86-53.86,53.86-10.86,0-20.94-3.24-29.4-8.77l-2.19,1.51c9.01,6.12,19.88,9.7,31.59,9.7,31.1,0,56.3-25.21,56.3-56.3,0-9.76-2.49-18.94-6.86-26.95l-1.83,1.82Z"/>
      <path class="cls-1" d="M50.05,62.61l7.37,7.45c.53,.53,1.43,.53,1.96,0L110.84,18.67c.6-.6,.6-1.43,0-2.03l-7.45-7.45c-.53-.53-1.43-.53-1.96,0L50.05,60.66c-.53,.53-.53,1.43,0,1.96Zm8.05-1.88L101.36,17.47c.38-.3,.9-.3,1.28,.08,.3,.38,.3,.83,0,1.2L59.38,62.01c-.38,.38-.9,.38-1.28,0-.38-.38-.38-.9,0-1.28Z"/>
      <path class="cls-1" d="M32.29,80.52l-14.6,21.07c-.15,.23-.15,.45,0,.68,.15,.3,.53,.3,.83,.15l21.07-14.6-7.3-7.3Z"/>
      <polygon class="cls-1" points="33.49 79.24 40.94 86.62 56.22 71.27 48.84 63.89 33.49 79.24"/>
      <path class="cls-1" d="M118.59,2.05c-1.88-2.26-5.19-2.48-7.45-.6-.23,.23-.45,.38-.6,.6l-5.87,5.87,7.45,7.37,5.87-5.79c2.26-1.88,2.48-5.19,.6-7.45Z"/>
    </g>
  </g>
</svg>