<?xml version="1.0" encoding="UTF-8"?>
<svg id="Layer_2" data-name="Layer 2" xmlns="http://www.w3.org/2000/svg" viewBox="0 0 151 142.8">
  <defs>
    <style>
      .cls-1 {
        fill: #051c43;
      }
    </style>
  </defs>
  <g id="type">
    <g>
      <path class="cls-1" d="M74.88,77.88L123.99,28.78c.34-.43,.34-.94,0-1.37-.43-.43-1.02-.43-1.45-.09l-49.1,49.1c-.43,.43-.43,1.02,0,1.45,.43,.43,1.02,.43,1.45,0Z"/>
      <path class="cls-1" d="M147.85,5.03h0c-4.74-5.69-13.27-6.43-19.02-1.65l-.42,.38c-.23,.2-.63,.55-1.06,1.06l-5.44,5.44c-1.71,.33-3.34,1.12-4.6,2.38l-2.3,2.31C102.56,5.32,87.19,0,71.4,0,32.03,0,0,32.03,0,71.4c0,18.75,7.2,36.38,20.26,49.79-.52,2.06-.27,4.26,.83,6.14,1.47,2.57,4.15,4.02,6.97,4.02,1.14,0,2.3-.27,3.42-.77,11.82,7.99,25.62,12.21,39.92,12.21,39.37,0,71.4-32.03,71.4-71.4,0-11.61-2.87-23.11-8.28-33.34l4.08-4.07c1.37-1.37,2.24-3.09,2.56-4.93l5.34-5.27c5.42-4.79,6.06-13.12,1.36-18.76Zm-25.23,12.91c.6-.6,1.62-.6,2.22,0l8.45,8.45c.68,.68,.68,1.62,0,2.31l-58.41,58.32c-.6,.6-1.62,.6-2.22,0l-8.37-8.45c-.6-.6-.6-1.62,0-2.22L122.62,17.93Zm-51.32,70.45l-17.33,17.42-8.45-8.37,17.42-17.42,8.37,8.37ZM7.5,71.4C7.5,36.11,36.11,7.5,71.4,7.5c15.46,0,29.63,5.49,40.68,14.62l-1.98,1.98c-10.54-8.64-24.01-13.83-38.7-13.83-33.76,0-61.12,27.37-61.12,61.12,0,16.75,6.75,31.92,17.67,42.97l-1.61,2.33c-11.63-11.57-18.84-27.59-18.84-45.29Zm21.02,52.33c-.34,.17-.77,.17-.94-.17-.17-.26-.17-.51,0-.77l16.57-23.91,8.28,8.28-23.91,16.57Zm106.78-52.33c0,35.29-28.61,63.9-63.9,63.9-13.29,0-25.63-4.06-35.86-11.01l2.49-1.72c9.6,6.27,21.05,9.95,33.37,9.95,33.76,0,61.12-27.37,61.12-61.12,0-10.3-2.58-20-7.08-28.51l2.07-2.07c4.96,9.08,7.79,19.5,7.79,30.58Zm6.1-53.13l-6.66,6.57-8.45-8.37,6.66-6.66c.17-.26,.43-.43,.68-.68,2.56-2.13,6.32-1.88,8.45,.68,2.13,2.56,1.88,6.32-.68,8.45Z"/>
    </g>
  </g>
</svg>