<?xml version="1.0" encoding="UTF-8"?>
<svg id="Layer_2" data-name="Layer 2" xmlns="http://www.w3.org/2000/svg" viewBox="0 0 52.8 39.6">
  <defs>
    <style>
      .cls-1 {
        fill: #fff;
      }
    </style>
  </defs>
  <g id="type">
    <path class="cls-1" d="M18.83,22.13C5.15,12.2,4.1,11.32,.95,8.86c-.6-.47-.95-1.19-.95-1.95v-1.96C0,2.22,2.22,0,4.95,0H47.85c2.73,0,4.95,2.22,4.95,4.95v1.96c0,.76-.35,1.49-.95,1.95-3.16,2.48-4.2,3.34-17.88,13.27-1.73,1.26-5.18,4.31-7.57,4.27-2.39,.04-5.84-3.01-7.57-4.27ZM52.8,13.56v21.09c0,2.73-2.22,4.95-4.95,4.95H4.95c-2.73,0-4.95-2.22-4.95-4.95V13.57c0-.52,.59-.8,1-.48,2.31,1.79,5.37,4.07,15.89,11.72,2.18,1.59,5.85,4.93,9.51,4.91,3.68,.03,7.43-3.38,9.52-4.91,10.52-7.64,13.57-9.93,15.88-11.73,.4-.32,1-.02,1,.49Z"/>
  </g>
</svg>