<?xml version="1.0" encoding="utf-8"?>
<!-- Generator: Adobe Illustrator 26.5.0, SVG Export Plug-In . SVG Version: 6.00 Build 0)  -->
<svg version="1.1" id="Layer_2_00000129172659753460544780000014096288879887620257_"
	 xmlns="http://www.w3.org/2000/svg" xmlns:xlink="http://www.w3.org/1999/xlink" x="0px" y="0px" viewBox="0 0 360 345.6"
	 style="enable-background:new 0 0 360 345.6;" xml:space="preserve">
<style type="text/css">
	.st0{fill:url(#SVGID_1_);}
	.st1{fill:url(#SVGID_00000003091906446268358730000000926764383703923360_);}
	.st2{fill:url(#SVGID_00000029032386585942360850000005975374882665833883_);}
	.st3{fill:#FFFFFF;}
	.st4{fill:#D9D9D9;}
	.st5{fill:url(#SVGID_00000040543035550987614900000006193037660738298765_);}
</style>
<g id="heroLogo">
	<g>
		<g>
			
				<linearGradient id="SVGID_1_" gradientUnits="userSpaceOnUse" x1="306.5854" y1="2393.2378" x2="273.2117" y2="2335.4434" gradientTransform="matrix(1 -1.919861e-03 1.919861e-03 1 -1.2306 -2250.4822)">
				<stop  offset="0" style="stop-color:#FFFF01"/>
				<stop  offset="0.28" style="stop-color:#FE7D1A"/>
				<stop  offset="0.62" style="stop-color:#FD1813"/>
				<stop  offset="0.91" style="stop-color:#931A89"/>
				<stop  offset="1" style="stop-color:#663794"/>
			</linearGradient>
			<path class="st0" d="M287.4,79c-0.3,0.3-0.7,0.6-1,0.8c6.7,14.3,10.1,29.7,10.2,45.7c0,8.1-0.9,16.1-2.7,24.1l7.2-2.3
				c1.4-7.2,2.1-14.5,2.1-21.8c0-17.5-3.9-34.3-11.5-49.9C290.2,76.7,288.8,77.8,287.4,79L287.4,79z"/>
			
				<linearGradient id="SVGID_00000111913232236888460750000017831178849160612752_" gradientUnits="userSpaceOnUse" x1="193.3882" y1="2399.1614" x2="123.9299" y2="2278.8589" gradientTransform="matrix(1 -1.919861e-03 1.919861e-03 1 -1.2306 -2250.4822)">
				<stop  offset="0" style="stop-color:#FFFF01"/>
				<stop  offset="0.28" style="stop-color:#FE7D1A"/>
				<stop  offset="0.62" style="stop-color:#FD1813"/>
				<stop  offset="0.91" style="stop-color:#931A89"/>
				<stop  offset="1" style="stop-color:#663794"/>
			</linearGradient>
			<path style="fill:url(#SVGID_00000111913232236888460750000017831178849160612752_);" d="M107.5,198.3
				c-17.9-19.9-27.8-45.5-27.9-72.3C79.5,66.1,128.1,17.4,187.9,17.3c15,0,29.6,3,43.1,8.8l0,0l0,0c6.4,2.8,12.5,6.1,18.3,10.1h11
				c-20.5-16.5-46.1-25.6-72.4-25.5C124.4,10.8,72.9,62.5,73,125.9c0.1,28.5,10.6,55.8,29.8,76.9L107.5,198.3L107.5,198.3z"/>
			
				<linearGradient id="SVGID_00000061464339216348776250000005072545832771549824_" gradientUnits="userSpaceOnUse" x1="246.4254" y1="2465.2747" x2="149.2915" y2="2297.0322" gradientTransform="matrix(1 -1.919861e-03 1.919861e-03 1 -1.2306 -2250.4822)">
				<stop  offset="0" style="stop-color:#FFFF01"/>
				<stop  offset="0.28" style="stop-color:#FE7D1A"/>
				<stop  offset="0.62" style="stop-color:#FD1813"/>
				<stop  offset="0.91" style="stop-color:#931A89"/>
				<stop  offset="1" style="stop-color:#663794"/>
			</linearGradient>
			<path style="fill:url(#SVGID_00000061464339216348776250000005072545832771549824_);" d="M250.9,62.6c8.9,0,11.9,5.2,15.7,11.8
				c0.8,1.3,1.6,2.7,2.4,4.1l3.5,5.4l6.6-5.3c1.5-1.2,3.1-2.5,4.7-3.8c2.2-1.8,4.4-3.6,6.4-5.2c4.2-3.3,7.2-6,9-7.6l4.3-4l-3.9-4.4
				c-5.6-6.3-10.7-10.2-15.5-11.8l-1-0.3l-57.7,0.1v-7.4l-8.2,3.5c-0.1,0-12.5,5.1-31.5,5.1c-21.5,0-41.8,6.4-57.1,18
				c-14.9,11.3-23.4,26.2-23.4,40.9c0,7.3,1.8,15.2,5.4,24.4l2.3,5.8l5.7-2.6c5.4-2.5,13.3-7,24.2-13.4l4.4-2.6l-2-4.8
				c-2.8-6.6-4.2-13-4.2-18.9c0-6-0.1-24.2,43.9-26.2L170,115.9c-2.1,2.2-6.1,6.1-11,9.4l-16,10.8h21.5
				c-10.5,43.2-12.9,46.3-38.9,53.4l-1.5,0.4L103.2,210l137.3,2.7h12.2l1.4-0.8c1.2-0.7,2.4-1.4,3.6-2.1c0.8-0.5,1.6-0.9,2.4-1.4
				l0.9-0.6c1-0.6,1.9-1.2,2.9-1.8l0.2-0.1c1-0.6,1.9-1.2,2.9-1.8c5.2-3.4,9.7-6.6,13.4-9.6c0.5-0.4,0.9-0.7,1.3-1.1l0.3-0.3
				c1.3-1.1,2.5-2.2,3.6-3.2l0.2-0.2c0.3-0.3,0.7-0.7,1-1l0.1-0.1c1-1,1.9-2,2.7-3l0.1-0.2c0.8-1,1.5-1.9,2.2-2.9
				c0.2-0.3,0.4-0.6,0.6-0.9l0.1-0.2c0.5-0.9,1-1.7,1.4-2.6l0.1-0.2c0.1-0.3,0.2-0.5,0.3-0.8l0.1-0.1c0.2-0.5,0.4-1,0.6-1.7
				c0.1-0.2,0.2-0.5,0.2-0.7l0.1-0.3c0.2-0.7,0.3-1.4,0.5-2.1v-0.3c0-0.2,0.1-0.4,0.1-0.6v-0.4c0-0.3,0.1-0.6,0.1-1v-5.7
				c0-0.8-0.1-1.6-0.1-2.4v-8l-37.1,11.7l1.3,5.4c0.9,3.7,1.3,6.5,1.3,8.6c0,3.2,0,5.1-14.3,5.1l-74.5,0.1
				c14.6-13.1,18.8-20.8,28.1-49.5c4.5-0.5,12.2-1,34.5-2.6l10.4-0.8l27.1-19.3h-18.5c-27.8,0.1-38.5-0.2-46.8-0.6l14.2-50.1
				L250.9,62.6L250.9,62.6z M201.4,117.1h0.6c9.8,0.5,19,0.9,52.1,0.8h4.2L244,128.2l-8.9,0.6c-28.2,2-33.2,2.4-37.9,3
				c-11.2,35-14.2,39.3-37,58.2l86.8-0.2c17.6,0,18.8-3.7,18.8-9.7c0-2.5-0.5-5.6-1.4-9.6l-0.3-1.2l27.2-8.6v1.9
				c0,0.9,0,1.8,0.1,2.7c0.4,9.4,0.9,19.2-39.6,42.5l-0.3,0.2h-11l-126.2-2.4l12.1-11.7l0.3-0.1c28.6-7.8,31.4-11.4,43.5-62.3h-12.3
				l3.7-2.5c5.6-3.8,10.2-8.3,12.5-10.8L191,58.7c-36.7,0.4-54.5,10.5-54.5,30.9c0,6.6,1.6,13.5,4.6,20.7l0.5,1.1l-1,0.6
				c-10.8,6.4-18.6,10.8-23.8,13.2l-1.3,0.6l-0.5-1.3c-3.4-8.6-5-16-5-22.7c0-13.3,7.8-26.9,21.6-37.3c14.6-11,33.9-17.1,54.4-17.1
				c20.2,0,33.1-5.4,33.2-5.5l1.9-0.8v5.1l61.5-0.1l0.2,0.1c4,1.4,8.5,4.8,13.6,10.6l0.9,1l-1,0.9c-1.7,1.6-4.6,4.2-8.7,7.4l0,0
				c-2.1,1.7-4.3,3.4-6.6,5.3c-2,1.7-4.1,3.3-6.1,4.9l-1.2,0.9l-0.8-1.2c-0.8-1.3-1.6-2.6-2.4-4c-4-6.9-8.1-14-19.6-14l-32.7,0.1
				L201.4,117.1L201.4,117.1z"/>
		</g>
		<g>
			<path class="st3" d="M41.3,298.1h-32v-55.6h32.1v9.7H21.1v12.2h18.8v9.7H21.1v14.4h20.2C41.3,288.5,41.3,298.1,41.3,298.1z"/>
			<path class="st3" d="M98.4,298.1h-15L59.2,256h-0.3c0.5,7.4,0.7,12.7,0.7,15.9v26.2H49v-55.6h14.9l24.2,41.7h0.3
				c-0.4-7.2-0.6-12.3-0.6-15.3v-26.3h10.6C98.4,242.6,98.4,298.1,98.4,298.1z"/>
			<path class="st3" d="M154.1,298.1h-11.8v-24h-22v24h-11.8v-55.6h11.8v21.8h22v-21.8h11.8V298.1z"/>
			<path class="st3" d="M198.3,298.1l-4-13.2H174l-4,13.2h-12.7l19.6-55.9h14.4l19.7,55.9H198.3L198.3,298.1z M191.5,275
				c-3.7-12-5.8-18.8-6.3-20.4s-0.8-2.8-1-3.7c-0.8,3.2-3.2,11.3-7.2,24.1H191.5z"/>
			<path class="st3" d="M263.5,298.1h-15L224.3,256H224c0.5,7.4,0.7,12.7,0.7,15.9v26.2h-10.5v-55.6H229l24.2,41.7h0.3
				c-0.4-7.2-0.6-12.3-0.6-15.3v-26.3h10.6V298.1L263.5,298.1z"/>
			<path class="st3" d="M297.3,251.5c-4.4,0-7.9,1.7-10.3,5c-2.4,3.3-3.7,8-3.7,13.9c0,12.4,4.7,18.6,14,18.6c3.9,0,8.6-1,14.2-2.9
				v9.9c-4.6,1.9-9.7,2.9-15.3,2.9c-8.1,0-14.3-2.5-18.6-7.4c-4.3-4.9-6.4-12-6.4-21.1c0-5.8,1-10.9,3.2-15.2
				c2.1-4.4,5.1-7.7,9.1-10s8.6-3.5,13.9-3.5s10.8,1.3,16.3,3.9l-3.8,9.6c-2.1-1-4.2-1.9-6.3-2.6
				C301.4,251.9,299.3,251.5,297.3,251.5L297.3,251.5z"/>
			<path class="st3" d="M351.5,298.1h-32v-55.6h32v9.7h-20.2v12.2H350v9.7h-18.8v14.4h20.2L351.5,298.1L351.5,298.1z"/>
		</g>
		<g>
			<path class="st4" d="M125.9,315.7c0,2.7-0.9,4.8-2.8,6.2c-1.8,1.5-4.5,2.2-7.9,2.2h-3.1v10.5H109V308h6.9
				C122.6,307.9,125.9,310.5,125.9,315.7L125.9,315.7z M112.1,321.4h2.8c2.8,0,4.7-0.4,6-1.3c1.2-0.9,1.8-2.3,1.8-4.3
				c0-1.8-0.6-3.1-1.7-3.9c-1.2-0.9-2.9-1.3-5.4-1.3h-3.5C112.1,310.6,112.1,321.4,112.1,321.4z"/>
			<path class="st4" d="M145.8,323.5v11.1h-3.1V308h7.3c3.3,0,5.7,0.6,7.2,1.9c1.6,1.2,2.3,3.1,2.3,5.6c0,3.5-1.8,5.9-5.4,7.1
				l7.2,12h-3.7l-6.4-11.1H145.8L145.8,323.5z M145.8,320.8h4.2c2.2,0,3.8-0.4,4.8-1.3s1.5-2.2,1.5-3.9s-0.5-3-1.6-3.8
				s-2.7-1.2-5-1.2h-4v10.2H145.8z"/>
			<path class="st4" d="M176.9,334.6V308h3.1v26.6H176.9z"/>
			<path class="st4" d="M219.3,334.6h-3.5l-14.6-22.4h-0.1c0.2,2.6,0.3,5,0.3,7.2v15.1h-2.9v-26.6h3.5l14.5,22.3h0.1
				c0-0.3-0.1-1.4-0.2-3.2c-0.1-1.8-0.1-3-0.1-3.8v-15.3h2.9L219.3,334.6L219.3,334.6z"/>
			<path class="st4" d="M246.1,334.6H243v-23.9h-8.4v-2.8h20v2.8h-8.4L246.1,334.6L246.1,334.6z"/>
			<path class="st4" d="M269.7,334.6V308h3.1v26.6H269.7z"/>
			<path class="st4" d="M312.1,334.6h-3.5L294,312.2h-0.1c0.2,2.6,0.3,5,0.3,7.2v15.1h-2.9v-26.6h3.5l14.5,22.3h0.1
				c0-0.3-0.1-1.4-0.2-3.2c-0.1-1.8-0.1-3-0.1-3.8v-15.3h2.9L312.1,334.6L312.1,334.6z"/>
			<path class="st4" d="M342.4,320.6h9.1v13c-1.4,0.5-2.8,0.8-4.3,1s-3.2,0.4-5.1,0.4c-4,0-7.2-1.2-9.4-3.6
				c-2.2-2.4-3.4-5.8-3.4-10.1c0-2.8,0.6-5.2,1.7-7.3c1.1-2.1,2.7-3.7,4.8-4.8c2.1-1.1,4.5-1.6,7.3-1.6s5.5,0.5,8,1.6l-1.2,2.7
				c-2.4-1-4.7-1.5-6.9-1.5c-3.2,0-5.8,1-7.6,2.9s-2.7,4.6-2.7,8c0,3.6,0.9,6.3,2.6,8.2c1.8,1.9,4.3,2.8,7.7,2.8
				c1.9,0,3.7-0.2,5.4-0.6v-8.2h-6V320.6L342.4,320.6z"/>
		</g>
		
			<linearGradient id="SVGID_00000152978070776364851990000004811100629024993669_" gradientUnits="userSpaceOnUse" x1="66.6762" y1="2575.2305" x2="42.3782" y2="2533.1438" gradientTransform="matrix(1 0 0 1 0 -2244.6401)">
			<stop  offset="0" style="stop-color:#FFFF01"/>
			<stop  offset="0.28" style="stop-color:#FE7D1A"/>
			<stop  offset="0.62" style="stop-color:#FD1813"/>
			<stop  offset="0.91" style="stop-color:#931A89"/>
			<stop  offset="1" style="stop-color:#663794"/>
		</linearGradient>
		<rect x="8.5" y="308" style="fill:url(#SVGID_00000152978070776364851990000004811100629024993669_);" width="92" height="3"/>
	</g>
</g>
</svg>
