<?xml version="1.0" encoding="UTF-8"?>
<svg id="Layer_2" data-name="Layer 2" xmlns="http://www.w3.org/2000/svg" viewBox="0 0 56.97 56.72">
  <defs>
    <style>
      .cls-1 {
        fill: #fff;
      }
    </style>
  </defs>
  <g id="type">
    <g id="GJCYpt">
      <path class="cls-1" d="M32.14,56.72v-22.24h6.73c.34-2.75,.64-5.29,.98-8.02h-7.72c0-2.25-.11-4.35,.04-6.42,.1-1.43,1.13-2.26,2.56-2.33,1.73-.08,3.47-.02,5.29-.02v-7.35c-3.43-.15-6.84-.76-10.17,.44-3.91,1.41-5.72,4.47-6,8.44-.17,2.33-.03,4.68-.03,7.17h-6.77v8.05h6.62v21.87C13.99,57.06,1.48,43.79,.18,32.12-1.6,16.07,9.81,1.34,26.36,.09c15.54-1.18,28.52,10.06,30.37,24.68,2.21,17.49-10.9,30.54-24.59,31.95Z"/>
    </g>
  </g>
</svg>