<?xml version="1.0" encoding="UTF-8"?>
<svg id="Layer_2" data-name="Layer 2" xmlns="http://www.w3.org/2000/svg" viewBox="0 0 169.93 159.21">
  <defs>
    <style>
      .cls-1 {
        fill: #fff;
      }
    </style>
  </defs>
  <g id="type">
    <g>
      <path class="cls-1" d="M137.78,129.85c-.06-.53-1.58-12.99-25.02-17.97-3.82-.8-7.41-1.49-10.73-2.1-15.84-2.99-25.41-4.75-26.98-14.15l-.19-4.37-6.03-1.3c-1.94-.41-3.87-1.02-5.89-1.82l-5.56-.91,.61,6.16c2.27,10.7,11.67,24.22,28.03,27.73,26.24,5.67,50.01,10.48,50.26,10.53l1.71,.36-.22-2.16Z"/>
      <path class="cls-1" d="M126.17,99.85c-.06-.53-1.96-12.99-31.35-17.97-4.78-.8-9.26-1.49-13.46-2.1-19.85-2.99-31.82-4.75-33.78-14.15l-.22-4.37-7.55-1.3c-2.43-.41-4.87-1.02-7.38-1.82l-2.85-.91,.77,6.16c2.82,10.7,10.51,24.22,30.99,27.73,32.87,5.67,62.64,10.48,62.95,10.53l2.16,.36-.28-2.16Z"/>
      <path class="cls-1" d="M18.02,31.63l101.07,17.8,29.08,77.43s11.64,0,16.01,2.18l-34.53-91.62L9.59,16.37C3.98,15.37-.97,20.32,.16,25.93c2.49,12.38,10.7,30.99,37.51,35.5,41.08,6.91,77.79,12.72,77.79,12.72,0,0-1.82-14.18-37.07-19.99-35.25-5.81-58.19-5.81-60.38-22.53Z"/>
      <g>
        <path class="cls-1" d="M44.09,19.1c12.83-9.81,28.83-15.65,46.22-15.65,42.05,0,76.16,34.09,76.16,76.16,0,10.64-2.18,20.76-6.14,29.97l1.71,4.59c5.03-10.45,7.88-22.17,7.88-34.56C169.93,35.63,134.3,0,90.31,0c-19.3,0-36.99,6.88-50.78,18.3l4.56,.8Z"/>
        <path class="cls-1" d="M148.17,130.15h-.91c-13.96,15.7-34.28,25.6-56.95,25.6-42.05,0-76.16-34.09-76.16-76.16,0-7.71,1.16-15.12,3.29-22.14-1.05-.66-2.05-1.33-2.99-2.02-2.43,7.63-3.76,15.76-3.76,24.16,0,43.98,35.63,79.62,79.62,79.62,24.74,0,46.83-11.28,61.43-28.97-1.3-.06-2.54-.08-3.57-.08Z"/>
      </g>
    </g>
  </g>
</svg>