<?xml version="1.0" encoding="UTF-8"?>
<svg id="Layer_2" data-name="Layer 2" xmlns="http://www.w3.org/2000/svg" viewBox="0 0 159.22 153.26">
  <defs>
    <style>
      .cls-1 {
        fill: #fff;
      }
    </style>
  </defs>
  <g id="type">
    <g>
      <path class="cls-1" d="M104.03,38.34l11.14,2.49-9.4-14.79-2.49,11.14c-.11,.5,.22,1.02,.75,1.16Z"/>
      <path class="cls-1" d="M61.84,51.12c-.53-.11-.86-.64-.75-1.19,.11-.53,.64-.86,1.19-.75l35.69,7.96h14.98l3.15-14.1-12.5-2.79c-1.58-.36-2.6-1.94-2.24-3.54l2.79-12.5L62.84,14.98c-.53-.11-1.05,.22-1.19,.75l-15.01,67.26c-.11,.53,.22,1.05,.75,1.19l29.86,6.66c1.69-1.88,3.21-2.57,6.05-2.6h.61v-7.99l-27.2-6.08c-.53-.11-.86-.64-.75-1.19,.11-.53,.64-.86,1.19-.75l26.76,5.97v-4.04l-25.9-5.78c-.53-.11-.86-.64-.75-1.19,.11-.53,.64-.86,1.19-.75l25.49,5.69v-4.04l-24.63-5.5c-.53-.11-.86-.64-.75-1.19,.11-.53,.64-.86,1.19-.75l24.19,5.39v-4.04l-23.33-5.2c-.53-.11-.86-.64-.75-1.19,.11-.53,.64-.86,1.19-.75l22.92,5.11v-2.9h5.03l-27.15-6Zm3.01-13.46l42.27,9.43c.53,.11,.86,.64,.75,1.19-.11,.53-.64,.86-1.19,.75l-42.27-9.43c-.53-.11-.86-.64-.75-1.19,.14-.53,.66-.86,1.19-.75Zm-1.3,5.78l42.27,9.43c.53,.11,.86,.64,.75,1.19-.11,.53-.64,.86-1.19,.75l-42.27-9.43c-.53-.11-.86-.64-.75-1.19,.14-.53,.66-.88,1.19-.75Z"/>
      <path class="cls-1" d="M15.7,57.42c-.33,.97-.66,2.41,.08,3.43,.75,1.05,2.18,1.16,3.35,1.16h28.89l.39-1.74H19.13c-1.33,0-1.8-.25-1.94-.44-.11-.17-.25-.64,.17-1.88l.97-2.88h7.77v2.6c0,.47,.39,.86,.86,.86h15.62c.47,0,.86-.39,.86-.86v-2.6h6.11l1.55-6.94H7.82c-1.44,0-2.6-1.16-2.6-2.6V10.81c0-1.44,1.16-2.6,2.6-2.6H61.65c1.44,0,2.6,1.16,2.6,2.6v1.16l5.2,1.16V7.33c0-2.41-1.94-4.34-4.34-4.34H4.34C1.94,2.99,0,4.92,0,7.33V50.73c0,2.41,1.94,4.34,4.34,4.34h12.11l-.75,2.35Z"/>
      <path class="cls-1" d="M144.75,93.14v4.15h1.02c.86,0,1.16-.22,1.22-.28,0-.03,0-.11-.08-.28l-1.8-3.57h-.36v-.03Z"/>
      <path class="cls-1" d="M85.75,126.97c.94-2.49,1.6-2.74,4.09-2.74h51.81c2.46,0,3.15,.25,4.09,2.74l1.3,3.48h1.88v-5.17c0-2.02-1.11-3.1-3.1-3.1h-60.1c-2.02,0-3.1,1.11-3.1,3.1v5.17h1.88l1.24-3.48Z"/>
      <path class="cls-1" d="M147.82,132.5l.77,2.07h3.43c1.63,0,2.65-.72,2.99-2.07h-7.19Z"/>
      <path class="cls-1" d="M142.68,92.09v-17.61h-10.37c-1.08,0-2.07-1-2.07-2.07v-10.37h-41.44v35.22h53.88v-5.17Z"/>
      <path class="cls-1" d="M82.88,134.58l.77-2.07h-7.19c.33,1.35,1.35,2.07,2.99,2.07h3.43Z"/>
      <path class="cls-1" d="M157.83,103.64l-6.63-8.85c-1.24-1.66-1.35-1.66-3.32-1.66h-.39l1.33,2.65c.39,.8,.39,1.63-.03,2.29-.36,.58-1.16,1.27-2.99,1.27h-60.1c-1.82,0-2.63-.69-2.99-1.27-.41-.66-.41-1.49-.03-2.29l1.33-2.65h-.39c-1.96,0-2.07,0-3.32,1.66l-6.63,8.85c-1.24,1.63-1.44,1.94-1.44,2.96v20.73c0,2.02,1.11,3.1,3.1,3.1h5.17v-5.17c0-3.15,2.05-5.17,5.17-5.17h60.1c3.15,0,5.17,2.05,5.17,5.17v5.17h5.17c2.02,0,3.1-1.11,3.1-3.1v-20.73c.06-1.02-.14-1.33-1.38-2.96Z"/>
      <path class="cls-1" d="M84.46,97.01c.06,.08,.36,.28,1.22,.28h1.02v-4.15h-.39l-1.8,3.57c-.06,.17-.06,.28-.06,.3Z"/>
      <polygon class="cls-1" points="132.31 72.4 141.21 72.4 132.31 63.5 132.31 72.4"/>
      <path class="cls-1" d="M146.91,135.99l-1.55-4.15-1.55-4.15q-.53-1.41-2.13-1.41h-51.81q-1.6,0-2.13,1.41l-1.55,4.15-1.55,4.15-6.22,16.59c-.17,.41-.11,.58-.11,.58,.14,.11,.94,.11,1.22,.11h72.54c.28,0,1.05,0,1.24-.14-.03,0,0-.17-.14-.53l-6.28-16.61Zm-4.75-.36c0,.58-.47,1.02-1.02,1.02h-32.65c-.58,0-1.02-.47-1.02-1.02,0-.58,.47-1.02,1.02-1.02h32.65c.58-.03,1.02,.44,1.02,1.02Zm-46.11-5.2h43.51c.58,0,1.02,.47,1.02,1.02,0,.58-.47,1.02-1.02,1.02h-43.51c-.58,0-1.02-.47-1.02-1.02s.47-1.02,1.02-1.02Zm-3.1,8.29h49.73c.58,0,1.02,.47,1.02,1.02,0,.58-.47,1.02-1.02,1.02h-49.73c-.58,0-1.02-.47-1.02-1.02-.03-.55,.44-1.02,1.02-1.02Zm-1.55,4.15h52.86c.58,0,1.02,.47,1.02,1.02,0,.58-.47,1.02-1.02,1.02h-52.86c-.58,0-1.02-.47-1.02-1.02-.03-.55,.44-1.02,1.02-1.02Zm54.41,6.22h-55.95c-.58,0-1.02-.47-1.02-1.02,0-.58,.47-1.02,1.02-1.02h55.95c.58,0,1.02,.47,1.02,1.02,0,.55-.47,1.02-1.02,1.02Z"/>
      <path class="cls-1" d="M81.88,3.01c36.68,0,66.43,29.75,66.43,66.43,0,3.21-.3,6.33-.75,9.4v9.4h.61c.19,0,.33,.03,.5,.06,1.69-6,2.65-12.3,2.65-18.85C151.33,31.1,120.23,0,81.88,0c-3.48,0-6.88,.33-10.23,.83,.8,.8,1.41,1.74,1.88,2.76,2.74-.33,5.53-.58,8.35-.58Z"/>
      <path class="cls-1" d="M72.26,135.07c-32.1-4.67-56.78-32.23-56.78-65.63,0-1.02,.11-2.05,.17-3.07-1.13-.36-2.13-.94-2.93-1.71-.11,1.58-.25,3.15-.25,4.75,0,36.21,27.76,65.93,63.14,69.11-1.49-.72-2.63-1.91-3.35-3.46Z"/>
    </g>
  </g>
</svg>