<?xml version="1.0" encoding="UTF-8"?>
<svg id="Layer_2" data-name="Layer 2" xmlns="http://www.w3.org/2000/svg" viewBox="0 0 58.11 58.11">
  <defs>
    <style>
      .cls-1 {
        fill: #fff;
      }
    </style>
  </defs>
  <g id="type">
    <path class="cls-1" d="M29.05,0C13.01,0,0,13.01,0,29.05s13.01,29.05,29.05,29.05,29.05-13.01,29.05-29.05S45.1,0,29.05,0Zm-7.94,47.02c-.7,.16-4.94,.21-6.26,.05V26.81c.68-.22,5.18-.26,6.23-.07,.19,.71,.22,19.36,.03,20.28Zm-3.12-23.11c-2.02-.01-3.74-1.7-3.62-3.73-.14-2.08,1.88-3.69,3.67-3.68,1.67,0,3.67,1.51,3.65,3.73-.02,2-1.67,3.7-3.69,3.68Zm27.03,22.45c0,.22-.04,.43-.08,.79-2.14,0-4.19,.02-6.31-.02-.02-.44-.05-.78-.05-1.12,0-3.3,0-6.59-.02-9.89,0-.66-.09-1.33-.22-1.98-.25-1.23-.98-2.04-2.24-2.29-1.71-.34-3.72,.27-4.23,2.4-.2,.82-.33,1.68-.34,2.53-.04,3.07-.01,6.15-.01,9.23,0,.34,0,.68,0,1.11-2.13,.07-4.14,.04-6.04,.03-.13-.11-.16-.13-.18-.16-.02-.02-.03-.06-.04-.09-.02-.16-.05-.31-.05-.47,0-6.4,0-12.81,0-19.21,0-.09,.01-.19,.04-.28,.01-.06,.06-.11,.14-.27,1.89-.06,3.83-.05,5.88,0v2.62c.31-.33,.47-.5,.62-.67,1.38-1.61,3.12-2.44,5.25-2.42,1.05,0,2.09,0,3.11,.31,2.24,.67,3.56,2.21,4.19,4.4,.39,1.35,.53,2.75,.55,4.13,.06,3.77,.03,7.55,.02,11.32Z"/>
  </g>
</svg>