<?xml version="1.0" encoding="UTF-8"?>
<svg id="Layer_2" data-name="Layer 2" xmlns="http://www.w3.org/2000/svg" viewBox="0 0 159.24 159.24">
  <defs>
    <style>
      .cls-1 {
        fill: #fff;
      }
    </style>
  </defs>
  <g id="type">
    <g>
      <path class="cls-1" d="M79.62,0C35.63,0,0,35.63,0,79.62s35.63,79.62,79.62,79.62,79.62-35.63,79.62-79.62c0-43.98-35.66-79.62-79.62-79.62Zm0,155.78C37.57,155.78,3.46,121.69,3.46,79.62S37.54,3.46,79.62,3.46s76.16,34.09,76.16,76.16c-.03,42.05-34.11,76.16-76.16,76.16Z"/>
      <path class="cls-1" d="M120.67,63.14c-1.71-2.99-4.48-5.5-7.63-6.86-3.48-1.52-7.57-.88-11.31-.91-1.99,0-3.79,.66-5.42,1.74-1.24,.83-1.88,1.96-2.07,3.48-.33,2.79-.77,11.83-1.3,14.6-.11,.58-.91,1.66-1.55,1.66-2.21-.03-.39-12.77-.22-13.88,.14-1,.36-1.99,.39-3.01,.17-4.84-4.73-4.59-7.82-3.21-2.05,.91-4.04,1-5.89-.41-1.05-.8-2.41-1.24-3.7-.53-1.47,.83-2.38,2.02-2.63,3.68-.44,3.1-.88,6.19-1.35,9.32-.33,2.21-.3,9.68-2.52,10.98-.11,.08-.25,.14-.41,.14-.22,0-.39-.14-.53-.3-.77-.97-.22-2.68-.06-3.79,.61-4.04,1.44-11.2,2.05-15.23,.25-1.63-.5-2.85-1.8-3.76-3.46-2.38-8.1-1.55-12-1.44-4.95,.11-9.04,2.05-11.97,6.05-1.6,2.21-2.82,4.7-4.23,7.05-4.87,8.16-11.45,14.29-20.54,17.47-3.62,1.27-7.35,2.1-11.11,2.52,5.25,35.33,35.69,62.42,72.49,62.42s67.95-27.76,72.65-63.69c-13.71-3.46-24.27-11.45-31.52-24.08Z"/>
    </g>
  </g>
</svg>