<?xml version="1.0" encoding="UTF-8"?>
<svg id="Layer_2" data-name="Layer 2" xmlns="http://www.w3.org/2000/svg" viewBox="0 0 52.8 52.81">
  <defs>
    <style>
      .cls-1 {
        fill: #fff;
      }
    </style>
  </defs>
  <g id="type">
    <path class="cls-1" d="M52.8,39.61c0,.19-.02,.37-.06,.55l-2.48,10.73c-.25,1.1-1.24,1.92-2.41,1.92h0C21.44,52.81,0,31.41,0,4.95H0C0,3.78,.82,2.79,1.92,2.54L12.64,.06c.18-.04,.36-.06,.55-.06,1.02,0,1.9,.62,2.29,1.5l4.95,11.55c.13,.3,.2,.63,.2,.97,0,.77-.36,1.46-.91,1.92l-6.25,5.12c3.79,8.04,10.24,14.49,18.27,18.27l5.12-6.25c.45-.56,1.15-.91,1.92-.91,.34,0,.67,.07,.97,.2l11.55,4.95c.89,.39,1.51,1.27,1.51,2.3Z"/>
  </g>
</svg>