<?xml version="1.0" encoding="UTF-8"?>
<svg id="Layer_2" data-name="Layer 2" xmlns="http://www.w3.org/2000/svg" viewBox="0 0 110.98 125.42">
  <defs>
    <style>
      .cls-1 {
        fill: #051c43;
      }
    </style>
  </defs>
  <g id="type">
    <g>
      <path class="cls-1" d="M2.41,55.49C2.41,26.18,26.17,2.41,55.49,2.41s53.08,23.76,53.08,53.08c0,17.18-8.2,32.41-20.86,42.11,0,1.07,0,2.07,0,3.01,14.07-10.07,23.27-26.5,23.27-45.12C110.98,24.84,86.14,0,55.49,0S0,24.84,0,55.49c0,25.19,16.8,46.42,39.79,53.2v-2.49C18.14,99.5,2.41,79.34,2.41,55.49Z"/>
      <path class="cls-1" d="M63.98,84.65c4.94,0,8.96-4.03,8.96-8.98s-4.02-8.99-8.96-8.99-8.96,4.03-8.96,8.99,4.02,8.98,8.96,8.98Z"/>
      <path class="cls-1" d="M55.01,30.91c0,4.95,4.02,8.99,8.96,8.99s8.96-4.03,8.96-8.99-4.02-8.98-8.96-8.98-8.96,4.03-8.96,8.98Z"/>
      <path class="cls-1" d="M85.77,107.9v-.72c-.01-3.5-.04-15.37-.05-28.81,.09-.88,.13-1.72,.13-2.54,0-13.03-10.1-23.64-22.51-23.64h-3.13c-10.71-.9-19.06-10.01-19.06-20.74,0-11.48,9.32-20.83,20.77-20.83,1.46,0,2.93,.16,4.38,.47l.7,.15,.4-3.52-21.77,.42c-12.43,0-22.53,10.6-22.53,23.64,0,9.4,5.3,17.9,13.51,21.67l1.22,.56-1.19,.61c-7.75,3.99-12.56,12.12-12.56,21.21,0,10.94,7.06,20.38,17.16,22.96l.49,.12,.03,12.2c-.01,.35-.26,7.91,3.62,11.87,1.3,1.34,2.88,2.09,4.82,2.31l.58,.13,40.95-3.07c.41,.03,.7,.04,1.22,.04,4.13-.08,7.37-2.81,9.12-7.68,1.12-3.12,1.34-6.14,1.38-6.99l-.12-1.73-17.53,1.93Zm-44.28-32.49c0-11.48,9.34-20.83,20.83-20.83s20.83,9.34,20.83,20.83-9.34,20.83-20.83,20.83-20.83-9.34-20.83-20.83Zm15.11,47.25l-5.25,.17c-.07,0-.15,0-.22,0-1.58,0-2.91-.55-3.97-1.62-2.44-2.49-2.97-7.49-2.9-10.05l-.03-11.83,.7,.05c.55,.04,1.1,.06,1.64,.06h16.75c7.49,0,14.48-3.91,18.69-10.46l1.2-1.86v2.21c.02,9.63,.04,16.96,.04,18.53v.26c-.01,.32-.25,7.18,3.09,11.27l.79,.97-30.53,2.28Z"/>
    </g>
  </g>
</svg>