<?xml version="1.0" encoding="UTF-8"?>
<svg id="Layer_2" data-name="Layer 2" xmlns="http://www.w3.org/2000/svg" viewBox="0 0 151 151">
  <defs>
    <style>
      .cls-1 {
        fill: #051c43;
      }
    </style>
  </defs>
  <g id="type">
    <g>
      <path class="cls-1" d="M75.5,0C33.87,0,0,33.87,0,75.5s33.87,75.5,75.5,75.5,75.5-33.87,75.5-75.5S117.14,0,75.5,0Zm0,143.07c-37.32,0-67.57-30.25-67.57-67.57S38.18,7.93,75.5,7.93s67.57,30.25,67.57,67.57-30.25,67.57-67.57,67.57Z"/>
      <g>
        <path class="cls-1" d="M66.51,55.7c.82,.71,1.77,1.41,2.82,2.1v-18.24c-.97,.47-1.87,1.08-2.72,1.83-2.44,2.07-3.56,4.34-3.56,7.17s1.1,5.12,3.45,7.15Z"/>
        <path class="cls-1" d="M82.99,77.3v34.91c2.93-.89,5.56-2.36,7.98-4.44,4.08-3.52,6.07-7.64,6.07-12.59s-1.98-9-6.07-12.53c-2.34-2.02-5.02-3.81-7.98-5.35Z"/>
        <path class="cls-1" d="M75.5,10.87C39.8,10.87,10.87,39.79,10.87,75.48s28.94,64.62,64.64,64.62,64.64-28.93,64.64-64.62S111.2,10.87,75.5,10.87Zm24.48,106.05c-4.92,4.25-10.63,6.98-17,8.14v9.75h-13.66v-9.58c-6.82-1-12.92-3.79-18.15-8.31-5.46-4.75-8.81-10.46-9.96-16.96l-.52-2.91,13-4.1,.49,4.03c.52,4.27,2.5,7.82,6.08,10.86,2.71,2.35,5.7,3.9,9.07,4.73v-40.52c-4.73-1.98-8.74-4.39-11.94-7.19-5.14-4.39-7.77-9.88-7.77-16.28s2.62-11.7,7.79-16.16c3.44-3.01,7.44-5,11.92-5.93V15.17h13.66v11.57c3.97,1.01,7.58,2.88,10.74,5.57,2.84,2.4,4.9,5.28,6.13,8.56l1.21,3.24-12.23,4.21-1.23-2.88c-.68-1.58-1.67-2.92-3.03-4.1-.51-.43-1.04-.81-1.59-1.15v23.52c6.45,2.42,12.16,5.73,16.98,9.85,6.87,5.92,10.34,13.19,10.34,21.62s-3.47,15.83-10.33,21.74Z"/>
      </g>
    </g>
  </g>
</svg>