<?xml version="1.0" encoding="UTF-8"?>
<svg id="Layer_2" data-name="Layer 2" xmlns="http://www.w3.org/2000/svg" viewBox="0 0 151 151">
  <defs>
    <style>
      .cls-1 {
        fill: #051c43;
      }
    </style>
  </defs>
  <g id="type">
    <g>
      <path class="cls-1" d="M75.5,10.87C39.8,10.87,10.87,39.8,10.87,75.5s28.94,64.64,64.64,64.64,64.64-28.94,64.64-64.64S111.2,10.87,75.5,10.87Zm-30.93,61.78c-.23,0-.46,.07-.65,.2l-5.17,3.58-4.37-4.37,3.58-5.17c.22-.32,.26-.72,.12-1.08l-2.52-6.18c-.15-.37-.48-.63-.88-.7l-6.13-.99v-6.09l6.17-1.19c.38-.07,.7-.34,.84-.69l2.52-6.18c.15-.36,.1-.76-.12-1.08l-3.58-5.17,4.37-4.37,5.17,3.58c.32,.22,.73,.27,1.08,.12l6.18-2.52c.36-.15,.62-.46,.69-.84l1.19-6.17h6.09l.99,6.13c.06,.39,.33,.73,.7,.88l6.18,2.52c.36,.15,.76,.1,1.08-.12l5.17-3.58,4.37,4.37-3.58,5.17c-.22,.32-.26,.72-.12,1.08l2.52,6.18c.15,.36,.46,.62,.84,.69l1.94,.38-.91,5.01-7.79,3.19-3.35-2.21c.17-.79,.25-1.51,.25-2.23,0-6.31-5.14-11.45-11.45-11.45s-11.45,5.14-11.45,11.45c0,5.8,4.24,10.57,9.95,11.3l3.64,5.54-3.2,7.79-2.37,.43-.73-3.75c-.07-.38-.33-.7-.69-.84l-6.18-2.52c-.14-.06-.29-.08-.43-.08Zm73.28,21.77c-.38,.07-.71,.33-.85,.69l-3.66,8.93c-.14,.35-.1,.75,.1,1.06l5.21,7.92-6.69,6.69-7.92-5.21c-.32-.21-.72-.24-1.06-.1l-8.93,3.66c-.36,.15-.62,.47-.69,.85l-1.66,9.13h-9.53l-1.66-9.13c-.07-.38-.33-.7-.69-.85l-8.93-3.66c-.35-.14-.75-.11-1.06,.1l-7.92,5.21-6.69-6.69,5.21-7.92c.21-.32,.25-.71,.1-1.06l-3.66-8.93c-.15-.36-.47-.62-.85-.69l-9.13-1.66v-9.54l5.03-.91s0,0,0,0l4.1-.74c.38-.07,.71-.33,.85-.69l3.66-8.93c.14-.35,.1-.75-.1-1.06l-5.21-7.92,6.69-6.69,3.39,2.23s0,0,0,0l4.53,2.98c.32,.21,.72,.24,1.06,.1l8.93-3.66c.36-.15,.62-.47,.69-.85l1.66-9.14h9.53l1.66,9.14c.07,.38,.33,.7,.69,.85l8.93,3.66c.35,.14,.75,.11,1.06-.1l7.92-5.21,6.69,6.69-5.21,7.92c-.21,.31-.25,.71-.1,1.06l3.66,8.93c.15,.36,.47,.62,.85,.69l9.13,1.66v9.54l-9.13,1.66Z"/>
      <path class="cls-1" d="M86.92,73.1c-8.2,0-14.88,6.68-14.88,14.88s6.68,14.88,14.88,14.88,14.88-6.68,14.88-14.88-6.68-14.88-14.88-14.88Z"/>
      <path class="cls-1" d="M75.5,0C33.87,0,0,33.87,0,75.5s33.87,75.5,75.5,75.5,75.5-33.87,75.5-75.5S117.14,0,75.5,0Zm0,143.07c-37.32,0-67.57-30.25-67.57-67.57S38.18,7.93,75.5,7.93s67.57,30.25,67.57,67.57-30.25,67.57-67.57,67.57Z"/>
    </g>
  </g>
</svg>