<?xml version="1.0" encoding="UTF-8"?>
<svg id="Layer_2" data-name="Layer 2" xmlns="http://www.w3.org/2000/svg" viewBox="0 0 123.46 112.93">
  <defs>
    <style>
      .cls-1 {
        fill: #051c43;
      }
    </style>
  </defs>
  <g id="type">
    <g>
      <path class="cls-1" d="M5.94,48.16c-.4,2.72-.68,5.47-.68,8.3,0,9.37,2.32,18.18,6.36,25.96l1.97-1.56c-3.73-7.34-5.87-15.61-5.87-24.41,0-2.8,.28-5.53,.69-8.22l-2.47-.08Z"/>
      <path class="cls-1" d="M61.73,2.45c17.93,0,33.76,8.77,43.59,22.21l3.11,.06C98.26,9.8,81.14,0,61.73,0S26.63,9.06,16.34,22.97l3.02,.06C29.25,10.51,44.53,2.45,61.73,2.45Z"/>
      <path class="cls-1" d="M117.19,54.45l-1.56-.05c.03,.69,.1,1.37,.1,2.06,0,7.21-1.44,14.07-4,20.36v.9h2.28c2.67-6.57,4.18-13.73,4.18-21.26,0-.7-.08-1.38-.1-2.07-.3,.02-.59,.07-.89,.06Z"/>
      <path class="cls-1" d="M95.18,98.81c-9.2,7.28-20.81,11.66-33.45,11.66s-25.32-4.77-34.71-12.66l-3.98-.3c10.11,9.53,23.7,15.42,38.69,15.42,13.17,0,25.26-4.55,34.86-12.1h-1.41v-2.01Z"/>
      <path class="cls-1" d="M119.13,28.91L8.78,26.81c-3.04-.06-4.26,1.74-5.43,4.55L.25,38.8c-.87,2.09,.62,4.4,2.88,4.46l.93,.03,.43,.85,13.3,.43v38.04l-6.29,4.97,.1,1.75,3.48,.92,5.29-4.23v-7.13c0-.19,0-.39,0-.58-.16-9.72-2.07-30.5,1.13-39.26l-13.75-.4,2.43-6.24,90.1,1.4-2.2,7.48-6.52-.13c-1.43,1.97-2.56,4.65-1.45,8.51l13.35,.37v31.66h-12.93c-.06,1.46,.14,2.87,.05,4.21h14l-5.42,8.7v2.24h4.96l8.04-12.9v-2.24h-4.39v-31.53l9.55,.31c3.12,.09,5.59-2.35,5.71-5.46l.44-11.52c.1-2.47-1.85-4.54-4.32-4.59Z"/>
      <path class="cls-1" d="M17.8,92.82l69.19,5.42c3.1-3.55,1.57-23.91,.41-40.16-1.37-19.2,3.92-19.86,3.92-19.86l-64.27-1.78c-5.29,1.36-4.57,30.41-3.69,41.83,.87,11.29-5.56,14.54-5.56,14.54Z"/>
    </g>
  </g>
</svg>