<?xml version="1.0" encoding="UTF-8"?>
<svg id="Layer_2" data-name="Layer 2" xmlns="http://www.w3.org/2000/svg" xmlns:xlink="http://www.w3.org/1999/xlink" viewBox="0 0 534.34 468.03">
  <defs>
    <style>
      .cls-1 {
        fill: url(#linear-gradient);
      }

      .cls-2 {
        filter: url(#drop-shadow-1);
      }

      .cls-3 {
        fill: url(#linear-gradient-3);
      }

      .cls-4 {
        fill: url(#linear-gradient-2);
      }
    </style>
    <filter id="drop-shadow-1" filterUnits="userSpaceOnUse">
      <feOffset dx="2.16" dy="2.16"/>
      <feGaussianBlur result="blur" stdDeviation="2.16"/>
      <feFlood flood-color="#000" flood-opacity=".9"/>
      <feComposite in2="blur" operator="in"/>
      <feComposite in="SourceGraphic"/>
    </filter>
    <linearGradient id="linear-gradient" x1="548.89" y1="301.44" x2="471.5" y2="167.4" gradientTransform="translate(-.62 4.36) rotate(-.11)" gradientUnits="userSpaceOnUse">
      <stop offset="0" stop-color="#ffff01"/>
      <stop offset=".28" stop-color="#fe7d1a"/>
      <stop offset=".62" stop-color="#fd1813"/>
      <stop offset=".91" stop-color="#931a89"/>
      <stop offset="1" stop-color="#663794"/>
    </linearGradient>
    <linearGradient id="linear-gradient-2" x1="286.7" y1="315.25" x2="125.7" y2="36.38" xlink:href="#linear-gradient"/>
    <linearGradient id="linear-gradient-3" x1="409.66" y1="468.19" x2="184.78" y2="78.7" xlink:href="#linear-gradient"/>
  </defs>
  <g id="heroLogo">
    <g class="cls-2">
      <g>
        <path d="M496.67,158.34c-.82,.67-1.6,1.3-2.4,1.95,15.58,33.26,23.53,68.83,23.6,105.82,.04,18.65-2.07,37.4-6.22,55.78l16.76-5.29c3.19-16.7,4.8-33.67,4.76-50.52-.08-40.51-9.08-79.41-26.7-115.68-3.18,2.55-6.41,5.17-9.8,7.94Z"/>
        <path d="M79.96,434.7C38.39,388.59,15.42,329.24,15.3,267.07,15.04,128.51,127.55,15.57,266.11,15.3c34.82-.07,68.56,6.92,99.8,20.44l.07-.03v.06c14.71,6.37,28.87,14.18,42.31,23.41l25.45-.05C386.36,20.89,326.92-.12,266.08,0,119.08,.28-.28,120.1,0,267.1c.13,66.14,24.62,129.25,68.95,178.23l11.01-10.63Z"/>
        <path d="M412.14,120.36c20.65-.04,27.57,11.97,36.42,27.33,1.8,3.11,3.65,6.32,5.65,9.4l8.17,12.6,15.41-12.21c3.58-2.87,7.15-5.77,10.79-8.75,5.21-4.26,10.13-8.28,14.92-12.02,9.81-7.66,16.7-13.95,20.82-17.7l10.03-9.14-9.06-10.11c-13.09-14.61-24.81-23.57-35.83-27.4l-2.2-.76-133.74,.26-.04-17.21-18.93,8c-.29,.12-28.96,11.74-72.95,11.82-49.81,.1-96.82,14.93-132.36,41.75-34.56,26.08-54.34,60.65-54.27,94.84,.03,16.85,4.1,35.35,12.42,56.53l5.28,13.45,13.14-6c12.53-5.72,30.74-16.14,56.07-31.12l10.29-6.08-4.63-11.01c-6.44-15.3-9.71-30.04-9.74-43.83-.03-13.96-.11-56.07,101.68-60.74l-34.54,121.61c-4.87,5.1-14.2,14.19-25.4,21.7l-37.46,25.14,49.78-.1c-24.26,100.12-30.01,107.31-90.27,123.72l-3.38,.92-48.26,46.6,318.14,6.17,28.38-.05,3.16-1.82c2.86-1.65,5.62-3.26,8.31-4.85,1.87-1.11,3.67-2.19,5.45-3.26l2.1-1.27c2.26-1.38,4.46-2.73,6.6-4.07l.39-.24c2.27-1.43,4.48-2.83,6.63-4.22,12.06-7.79,22.5-15.26,31.05-22.19,1.03-.84,2.02-1.66,2.98-2.47l.82-.69c3-2.55,5.78-5.05,8.24-7.42l.39-.37c.82-.8,1.61-1.58,2.38-2.36l.32-.33c2.28-2.32,4.39-4.65,6.29-6.93l.34-.41c1.85-2.24,3.54-4.48,5.1-6.79,.46-.69,.9-1.37,1.33-2.05l.24-.4c1.22-1.98,2.31-3.99,3.23-5.92l.24-.49c.28-.61,.56-1.22,.81-1.83l.13-.32c.51-1.22,.95-2.42,1.43-3.87,.18-.56,.34-1.11,.5-1.66l.18-.64c.43-1.6,.79-3.26,1.07-4.91l.13-.77c.07-.46,.13-.93,.19-1.39l.1-.83c.08-.73,.15-1.45,.22-2.41l-.08-13.17c-.08-1.81-.17-3.62-.17-5.46l-.04-18.63-86.05,27.15,2.95,12.39c2.02,8.48,3.01,14.98,3.01,19.9,.01,7.36,.02,11.8-33.09,11.86l-172.62,.33c33.88-30.24,43.63-48.22,65.04-114.69,10.41-1.1,28.3-2.38,80-6.09l24.1-1.73,62.73-44.78-42.87,.08c-64.31,.12-89.16-.56-108.47-1.38l32.99-116.09,67.91-.13Zm-114.68,126.14l1.46,.07c22.61,1.07,43.97,2.08,120.83,1.93l9.84-.02-33.43,23.86-20.54,1.48c-65.4,4.69-77.02,5.52-87.83,7-25.9,81.16-33.01,91.06-85.69,134.95l201.26-.39c40.72-.08,43.64-8.53,43.62-22.43-.01-5.75-1.09-13.06-3.3-22.32l-.68-2.85,63-19.88v4.28c.01,2.11,.11,4.2,.21,6.28,1.01,21.87,2.06,44.49-91.85,98.54l-.72,.42-25.57,.05-292.52-5.67,28.04-27.08,.78-.21c66.33-18.06,72.64-26.4,100.89-144.47l-28.43,.05,8.6-5.77c13.07-8.77,23.58-19.28,28.96-25.11l39.17-137.9c-85.07,.9-126.39,24.37-126.3,71.7,.03,15.19,3.59,31.31,10.57,47.9l1.06,2.53-2.36,1.4c-25.04,14.8-42.99,25.08-55.08,30.6l-3.02,1.38-1.21-3.08c-7.83-19.95-11.66-37.19-11.69-52.7-.06-30.84,18.19-62.33,50.08-86.4,33.73-25.46,78.49-39.53,126.03-39.62,46.88-.09,76.71-12.51,77-12.64l4.36-1.85,.02,11.9,142.5-.27,.5,.17c9.29,3.23,19.57,11.23,31.43,24.47l2.08,2.32-2.3,2.1c-4.02,3.67-10.76,9.8-20.21,17.19h0c-4.9,3.82-9.9,7.91-15.19,12.24-4.68,3.82-9.42,7.71-14.17,11.46l-2.71,2.13-1.88-2.89c-1.89-2.92-3.64-5.95-5.49-9.16-9.18-15.94-18.68-32.42-45.44-32.37l-75.86,.15-38.8,136.55Z"/>
      </g>
    </g>
    <g>
      <path class="cls-1" d="M496.67,158.34c-.82,.67-1.6,1.3-2.4,1.95,15.58,33.26,23.53,68.83,23.6,105.82,.04,18.65-2.07,37.4-6.22,55.78l16.76-5.29c3.19-16.7,4.8-33.67,4.76-50.52-.08-40.51-9.08-79.41-26.7-115.68-3.18,2.55-6.41,5.17-9.8,7.94Z"/>
      <path class="cls-4" d="M79.96,434.7C38.39,388.59,15.42,329.24,15.3,267.07,15.04,128.51,127.55,15.57,266.11,15.3c34.82-.07,68.56,6.92,99.8,20.44l.07-.03v.06c14.71,6.37,28.87,14.18,42.31,23.41l25.45-.05C386.36,20.89,326.92-.12,266.08,0,119.08,.28-.28,120.1,0,267.1c.13,66.14,24.62,129.25,68.95,178.23l11.01-10.63Z"/>
      <path class="cls-3" d="M412.14,120.36c20.65-.04,27.57,11.97,36.42,27.33,1.8,3.11,3.65,6.32,5.65,9.4l8.17,12.6,15.41-12.21c3.58-2.87,7.15-5.77,10.79-8.75,5.21-4.26,10.13-8.28,14.92-12.02,9.81-7.66,16.7-13.95,20.82-17.7l10.03-9.14-9.06-10.11c-13.09-14.61-24.81-23.57-35.83-27.4l-2.2-.76-133.74,.26-.04-17.21-18.93,8c-.29,.12-28.96,11.74-72.95,11.82-49.81,.1-96.82,14.93-132.36,41.75-34.56,26.08-54.34,60.65-54.27,94.84,.03,16.85,4.1,35.35,12.42,56.53l5.28,13.45,13.14-6c12.53-5.72,30.74-16.14,56.07-31.12l10.29-6.08-4.63-11.01c-6.44-15.3-9.71-30.04-9.74-43.83-.03-13.96-.11-56.07,101.68-60.74l-34.54,121.61c-4.87,5.1-14.2,14.19-25.4,21.7l-37.46,25.14,49.78-.1c-24.26,100.12-30.01,107.31-90.27,123.72l-3.38,.92-48.26,46.6,318.14,6.17,28.38-.05,3.16-1.82c2.86-1.65,5.62-3.26,8.31-4.85,1.87-1.11,3.67-2.19,5.45-3.26l2.1-1.27c2.26-1.38,4.46-2.73,6.6-4.07l.39-.24c2.27-1.43,4.48-2.83,6.63-4.22,12.06-7.79,22.5-15.26,31.05-22.19,1.03-.84,2.02-1.66,2.98-2.47l.82-.69c3-2.55,5.78-5.05,8.24-7.42l.39-.37c.82-.8,1.61-1.58,2.38-2.36l.32-.33c2.28-2.32,4.39-4.65,6.29-6.93l.34-.41c1.85-2.24,3.54-4.48,5.1-6.79,.46-.69,.9-1.37,1.33-2.05l.24-.4c1.22-1.98,2.31-3.99,3.23-5.92l.24-.49c.28-.61,.56-1.22,.81-1.83l.13-.32c.51-1.22,.95-2.42,1.43-3.87,.18-.56,.34-1.11,.5-1.66l.18-.64c.43-1.6,.79-3.26,1.07-4.91l.13-.77c.07-.46,.13-.93,.19-1.39l.1-.83c.08-.73,.15-1.45,.22-2.41l-.08-13.17c-.08-1.81-.17-3.62-.17-5.46l-.04-18.63-86.05,27.15,2.95,12.39c2.02,8.48,3.01,14.98,3.01,19.9,.01,7.36,.02,11.8-33.09,11.86l-172.62,.33c33.88-30.24,43.63-48.22,65.04-114.69,10.41-1.1,28.3-2.38,80-6.09l24.1-1.73,62.73-44.78-42.87,.08c-64.31,.12-89.16-.56-108.47-1.38l32.99-116.09,67.91-.13Zm-114.68,126.14l1.46,.07c22.61,1.07,43.97,2.08,120.83,1.93l9.84-.02-33.43,23.86-20.54,1.48c-65.4,4.69-77.02,5.52-87.83,7-25.9,81.16-33.01,91.06-85.69,134.95l201.26-.39c40.72-.08,43.64-8.53,43.62-22.43-.01-5.75-1.09-13.06-3.3-22.32l-.68-2.85,63-19.88v4.28c.01,2.11,.11,4.2,.21,6.28,1.01,21.87,2.06,44.49-91.85,98.54l-.72,.42-25.57,.05-292.52-5.67,28.04-27.08,.78-.21c66.33-18.06,72.64-26.4,100.89-144.47l-28.43,.05,8.6-5.77c13.07-8.77,23.58-19.28,28.96-25.11l39.17-137.9c-85.07,.9-126.39,24.37-126.3,71.7,.03,15.19,3.59,31.31,10.57,47.9l1.06,2.53-2.36,1.4c-25.04,14.8-42.99,25.08-55.08,30.6l-3.02,1.38-1.21-3.08c-7.83-19.95-11.66-37.19-11.69-52.7-.06-30.84,18.19-62.33,50.08-86.4,33.73-25.46,78.49-39.53,126.03-39.62,46.88-.09,76.71-12.51,77-12.64l4.36-1.85,.02,11.9,142.5-.27,.5,.17c9.29,3.23,19.57,11.23,31.43,24.47l2.08,2.32-2.3,2.1c-4.02,3.67-10.76,9.8-20.21,17.19h0c-4.9,3.82-9.9,7.91-15.19,12.24-4.68,3.82-9.42,7.71-14.17,11.46l-2.71,2.13-1.88-2.89c-1.89-2.92-3.64-5.95-5.49-9.16-9.18-15.94-18.68-32.42-45.44-32.37l-75.86,.15-38.8,136.55Z"/>
    </g>
  </g>
</svg>