<?xml version="1.0" encoding="UTF-8"?>
<svg id="Layer_2" data-name="Layer 2" xmlns="http://www.w3.org/2000/svg" xmlns:xlink="http://www.w3.org/1999/xlink" viewBox="0 0 153.58 41.76">
  <defs>
    <style>
      .cls-1 {
        fill: url(#linear-gradient);
      }

      .cls-2 {
        fill: #fff;
      }

      .cls-3 {
        fill: #d9d9d9;
      }
    </style>
    <linearGradient id="linear-gradient" x1="26.04" y1="39.82" x2="15.15" y2="20.97" gradientUnits="userSpaceOnUse">
      <stop offset="0" stop-color="#ffff01"/>
      <stop offset=".28" stop-color="#fe7d1a"/>
      <stop offset=".62" stop-color="#fd1813"/>
      <stop offset=".91" stop-color="#931a89"/>
      <stop offset="1" stop-color="#663794"/>
    </linearGradient>
  </defs>
  <g id="MenuBar">
    <g>
      <g>
        <path class="cls-2" d="M14.69,25.28H.33V.36H14.69V4.69H5.62v5.47H14.05v4.33H5.62v6.43H14.69v4.36Z"/>
        <path class="cls-2" d="M40.25,25.28h-6.72L22.69,6.43h-.15c.22,3.33,.32,5.71,.32,7.13v11.73h-4.72V.36h6.67l10.83,18.67h.12c-.17-3.24-.26-5.53-.26-6.87V.36h4.76V25.28Z"/>
        <path class="cls-2" d="M65.2,25.28h-5.27V14.52h-9.87v10.76h-5.28V.36h5.28V10.13h9.87V.36h5.27V25.28Z"/>
        <path class="cls-2" d="M85,25.28l-1.81-5.93h-9.09l-1.81,5.93h-5.69L75.41,.26h6.46l8.83,25.03h-5.69Zm-3.07-10.37c-1.67-5.38-2.61-8.42-2.82-9.12-.21-.7-.36-1.26-.45-1.67-.38,1.46-1.45,5.05-3.22,10.79h6.5Z"/>
        <path class="cls-2" d="M114.2,25.28h-6.72l-10.84-18.85h-.15c.22,3.33,.32,5.71,.32,7.13v11.73h-4.72V.36h6.67l10.83,18.67h.12c-.17-3.24-.26-5.53-.26-6.87V.36h4.76V25.28Z"/>
        <path class="cls-2" d="M129.31,4.4c-1.99,0-3.53,.75-4.62,2.24-1.09,1.49-1.64,3.58-1.64,6.25,0,5.56,2.09,8.34,6.26,8.34,1.75,0,3.87-.44,6.36-1.31v4.43c-2.05,.85-4.33,1.28-6.85,1.28-3.63,0-6.4-1.1-8.32-3.3-1.92-2.2-2.88-5.36-2.88-9.47,0-2.59,.47-4.86,1.41-6.81,.94-1.95,2.3-3.44,4.07-4.48,1.77-1.04,3.84-1.56,6.21-1.56s4.85,.59,7.3,1.76l-1.7,4.3c-.93-.44-1.87-.83-2.81-1.16-.94-.33-1.87-.49-2.78-.49Z"/>
        <path class="cls-2" d="M153.58,25.28h-14.35V.36h14.35V4.69h-9.07v5.47h8.44v4.33h-8.44v6.43h9.07v4.36Z"/>
      </g>
      <g>
        <path class="cls-3" d="M52.55,33.14c0,1.21-.41,2.14-1.24,2.79s-2,.98-3.54,.98h-1.4v4.69h-1.39v-11.94h3.09c2.98,0,4.47,1.16,4.47,3.48Zm-6.18,2.57h1.25c1.23,0,2.12-.2,2.67-.6,.55-.4,.82-1.03,.82-1.91,0-.79-.26-1.38-.78-1.76-.52-.39-1.32-.58-2.42-.58h-1.55v4.85Z"/>
        <path class="cls-3" d="M61.45,36.63v4.96h-1.39v-11.94h3.27c1.46,0,2.55,.28,3.25,.84,.7,.56,1.05,1.4,1.05,2.53,0,1.58-.8,2.64-2.4,3.2l3.24,5.36h-1.64l-2.89-4.96h-2.49Zm0-1.19h1.9c.98,0,1.7-.19,2.16-.58,.46-.39,.69-.97,.69-1.75s-.23-1.36-.7-1.71c-.47-.35-1.21-.52-2.24-.52h-1.8v4.56Z"/>
        <path class="cls-3" d="M75.42,41.6v-11.94h1.39v11.94h-1.39Z"/>
        <path class="cls-3" d="M94.41,41.6h-1.58l-6.52-10.02h-.07c.09,1.18,.13,2.25,.13,3.23v6.78h-1.28v-11.94h1.57l6.51,9.98h.07c-.01-.15-.04-.62-.07-1.42-.04-.8-.05-1.37-.04-1.71v-6.85h1.3v11.94Z"/>
        <path class="cls-3" d="M106.39,41.6h-1.39v-10.7h-3.78v-1.23h8.95v1.23h-3.78v10.7Z"/>
        <path class="cls-3" d="M116.98,41.6v-11.94h1.39v11.94h-1.39Z"/>
        <path class="cls-3" d="M135.98,41.6h-1.58l-6.52-10.02h-.07c.09,1.18,.13,2.25,.13,3.23v6.78h-1.28v-11.94h1.57l6.51,9.98h.07c-.01-.15-.04-.62-.07-1.42-.04-.8-.05-1.37-.04-1.71v-6.85h1.3v11.94Z"/>
        <path class="cls-3" d="M149.52,35.34h4.06v5.8c-.63,.2-1.27,.35-1.93,.46-.65,.1-1.41,.16-2.27,.16-1.81,0-3.21-.54-4.22-1.61s-1.51-2.58-1.51-4.52c0-1.24,.25-2.33,.75-3.26,.5-.93,1.21-1.65,2.15-2.14s2.03-.74,3.29-.74,2.46,.23,3.56,.7l-.54,1.22c-1.08-.46-2.11-.69-3.11-.69-1.45,0-2.59,.43-3.4,1.3-.82,.87-1.22,2.07-1.22,3.6,0,1.61,.39,2.83,1.18,3.67,.79,.83,1.94,1.25,3.47,1.25,.83,0,1.64-.1,2.42-.29v-3.67h-2.67v-1.24Z"/>
      </g>
      <rect class="cls-1" y="29.72" width="41.19" height="1.36"/>
    </g>
  </g>
</svg>